<svg xmlns="http://www.w3.org/2000/svg" viewBox="0 0 640 240" width="640" height="240" role="img" aria-hidden="true" data-drawn-against="#fbfaf7"><rect x="60" y="56" width="236" height="10" rx="5" fill="#5c8e78"/><rect x="60" y="80" width="236" height="10" rx="5" fill="#c9dbd1"/><rect x="60" y="104" width="236" height="10" rx="5" fill="#c9dbd1"/><rect x="60" y="128" width="236" height="10" rx="5" fill="#c9dbd1"/><rect x="60" y="152" width="236" height="10" rx="5" fill="#c9dbd1"/><rect x="60" y="176" width="150" height="10" rx="5" fill="#c9dbd1"/><rect x="344" y="56" width="236" height="10" rx="5" fill="#5c8e78"/><rect x="344" y="80" width="236" height="10" rx="5" fill="#c9dbd1"/><rect x="344" y="104" width="236" height="10" rx="5" fill="#c9dbd1"/><rect x="344" y="128" width="236" height="10" rx="5" fill="#c9dbd1"/><rect x="344" y="152" width="236" height="10" rx="5" fill="#c9dbd1"/><rect x="344" y="176" width="150" height="10" rx="5" fill="#c9dbd1"/></svg>
